HIERARCHY
ROOT hip
{
	OFFSET 0.000000 0.000000 0.000000 
	CHANNELS 6 Xposition Yposition Zposition Xrotation Zrotation Yrotation
	JOINT abdomen
	{
		OFFSET 0.000000 3.402643 0.000000 
		CHANNELS 3 Xrotation Zrotation Yrotation
		JOINT chest
		{
			OFFSET 0.000000 8.438565 -0.680529 
			CHANNELS 3 Xrotation Zrotation Yrotation
			JOINT neck
			{
				OFFSET 0.000000 10.207942 -0.272212 
				CHANNELS 3 Xrotation Zrotation Yrotation
				JOINT head
				{
					OFFSET 0.000000 3.130431 0.000000 
					CHANNELS 3 Xrotation Zrotation Yrotation
					End Site
					{
						OFFSET 0.000000 3.130435 0.000000 
					}
				}
			}
			JOINT lCollar
			{
				OFFSET 3.470700 6.669187 -0.816635 
				CHANNELS 3 Yrotation Zrotation Xrotation
				JOINT lShldr
				{
					OFFSET 3.198488 0.000000 0.000000 
					CHANNELS 3 Zrotation Yrotation Xrotation
					JOINT lForeArm
					{
						OFFSET 10.139888 0.000000 0.000000 
						CHANNELS 3 Yrotation Zrotation Xrotation
						JOINT lHand
						{
							OFFSET 8.370511 0.000000 0.000000 
							CHANNELS 3 Zrotation Yrotation Xrotation
							End Site
							{
								OFFSET 4.083176 0.000000 0.000000 
							}
						}
					}
				}
			}
			JOINT rCollar
			{
				OFFSET -3.470700 6.669187 -0.816635 
				CHANNELS 3 Yrotation Zrotation Xrotation
				JOINT rShldr
				{
					OFFSET -3.198488 0.000000 0.000000 
					CHANNELS 3 Zrotation Yrotation Xrotation
					JOINT rForeArm
					{
						OFFSET -10.139888 0.000000 0.000000 
						CHANNELS 3 Yrotation Zrotation Xrotation
						JOINT rHand
						{
							OFFSET -8.370511 0.000000 0.000000 
							CHANNELS 3 Zrotation Yrotation Xrotation
							End Site
							{
								OFFSET -4.083176 0.000000 0.000000 
							}
						}
					}
				}
			}
		}
	}
	JOINT lThigh
	{
		OFFSET 5.308129 -1.633274 1.361059 
		CHANNELS 3 Xrotation Zrotation Yrotation
		JOINT lShin
		{
			OFFSET -2.041588 -20.007561 0.000000 
			CHANNELS 3 Xrotation Zrotation Yrotation
			JOINT lFoot
			{
				OFFSET 0.000000 -19.190928 -1.224953 
				CHANNELS 3 Xrotation Yrotation Zrotation
				End Site
				{
					OFFSET 0.000000 -2.449906 4.627600 
				}
			}
		}
	}
	JOINT rThigh
	{
		OFFSET -5.308129 -1.633274 1.361059 
		CHANNELS 3 Xrotation Zrotation Yrotation
		JOINT rShin
		{
			OFFSET 2.041588 -20.007561 0.000000 
			CHANNELS 3 Xrotation Zrotation Yrotation
			JOINT rFoot
			{
				OFFSET 0.000000 -19.190928 -1.224953 
				CHANNELS 3 Xrotation Yrotation Zrotation
				End Site
				{
					OFFSET 0.000000 -2.449906 4.627600 
				}
			}
		}
	}
}
MOTION
Frames: 6
Frame Time: 0.011111
25.727594 53.069572 29.639715 175.242859 -178.118668 -1.176220 1.530338 -4.842004 1.254283 -2.515242 0.694497 0.424939 -10.402411 -10.375371 -6.612101 14.936647 27.759438 -13.600780 1.452834 -1.250150 0.768655 -68.545425 -50.426311 51.264748 -100.777382 8.526342 39.564644 6.992188 16.005859 -19.059805 -6.408587 0.914528 1.823621 77.682404 42.262665 51.563763 97.256470 -7.208683 37.685413 -7.001954 -15.996095 71.767578 0.537171 4.285314 -7.599264 10.537521 -5.204937 -0.550310 -19.959187 6.604957 2.001355 -0.281373 -9.904167 11.447792 11.481138 5.201314 0.634380 -16.759476 -15.360260 -3.259794 
25.728197 53.085579 29.638508 175.194412 -178.241730 -1.214438 1.500885 -4.666749 1.282627 -2.534771 0.665350 0.424130 -10.492234 -10.401170 -6.573558 15.111865 27.770826 -13.505167 1.452834 -1.250150 0.768655 -68.936485 -50.179657 52.145943 -100.789490 8.526860 39.575024 6.992188 16.005859 -19.303947 -6.408587 0.914528 1.823621 78.036247 42.104553 52.116653 97.371529 -7.259672 37.753620 -7.001954 -15.996095 71.826172 0.439609 4.416490 -7.493331 10.637349 -5.201359 -0.553638 -20.015482 6.419955 1.946966 -0.281379 -9.767487 11.477189 11.384081 5.201555 0.611112 -16.728891 -15.332965 -3.249914 
25.731821 53.078327 29.640318 175.165436 -178.323746 -1.279328 1.442300 -4.543108 1.339375 -2.358987 0.712642 0.437035 -10.779222 -10.413045 -6.466576 15.285291 27.606581 -13.276500 1.452834 -1.250150 0.768655 -69.349373 -50.069565 53.163971 -100.728394 8.509067 39.549591 6.992188 16.005859 -19.684807 -6.408587 0.914528 1.823621 78.352600 42.165840 52.937420 97.379807 -7.265242 37.754700 -7.001954 -15.996095 71.855469 0.302886 4.518759 -7.388937 10.772329 -5.214940 -0.569859 -20.058147 6.407906 1.964788 -0.271671 -9.670078 11.544954 11.297591 5.202171 0.597968 -16.677488 -15.349686 -3.238830 
25.736654 53.065044 29.633677 175.175125 -178.186783 -1.395445 1.392966 -4.747175 1.511786 -2.280869 0.798746 0.488926 -10.834228 -10.268510 -6.444685 15.275933 27.351059 -13.205259 1.452834 -1.250150 0.768655 -69.860298 -49.919739 54.446239 -100.636932 8.482029 39.491898 6.992188 16.005859 -19.880116 -6.408587 0.914528 1.823621 78.700089 42.165379 53.775597 97.305061 -7.229310 37.719139 -7.001954 -15.996095 71.914063 0.293096 4.352743 -7.233863 10.870121 -5.215043 -0.583370 -20.110415 6.365891 1.967670 -0.300889 -9.816315 11.644813 11.276405 5.201406 0.597238 -16.671406 -15.342198 -3.234855 
25.737860 53.060818 29.622501 175.185028 -178.160187 -1.481697 1.333547 -4.794628 1.689608 -2.212516 0.806702 0.538937 -10.650784 -10.064602 -6.501863 15.022108 27.085522 -13.322811 1.452834 -1.250150 0.768655 -70.488136 -49.681202 56.061222 -100.577499 8.461980 39.466179 6.992188 16.005859 -20.085197 -6.408587 0.914528 1.823621 79.080101 42.112831 54.517288 97.782806 -7.441358 37.977646 -7.001954 -15.996095 73.027344 0.390707 4.323335 -7.104466 10.712161 -5.204420 -0.565932 -19.886244 6.515034 1.947068 -0.429373 -9.832890 11.732432 11.519606 5.210767 0.617242 -16.876707 -15.298985 -3.297429 
25.737860 53.060818 29.617971 175.224396 -178.256882 -1.510540 1.343159 -4.681321 1.771172 -2.212521 0.796450 0.558216 -10.508433 -9.890182 -6.524991 14.870918 26.837332 -13.371677 1.452834 -1.250150 0.768655 -71.036469 -49.413837 57.839417 -100.446922 8.420629 39.402912 6.992188 16.005859 -20.397694 -6.408587 0.914528 1.823621 79.579193 42.039974 55.868153 97.638092 -7.379625 37.896721 -7.001954 -15.996095 72.675781 0.566287 4.428698 -7.011791 10.405840 -5.205915 -0.535127 -19.563160 6.702797 1.951301 -0.584138 -9.661179 11.802370 12.000880 5.211922 0.664864 -17.214590 -15.218369 -3.368069 
